<svg fill="#FF9900" role="img" viewBox="0 0 24 24" xmlns="http://www.w3.org/2000/svg"><title>Amazon</title><path d="M.045 18.02c.072-.116.187-.124.348-.022 3.636 2.11 7.594 3.166 11.87 3.166 2.852 0 5.668-.533 8.447-1.595l.315-.14c.138-.06.234-.1.293-.13.226-.088.39-.046.525.13.12.174.09.336-.12.48-.256.19-.6.41-1.006.654-1.244.743-2.64 1.316-4.185 1.726a17.617 17.617 0 0 1-10.951-.577 17.88 17.88 0 0 1-5.43-3.35c-.1-.074-.162-.15-.18-.232-.022-.082.044-.16.074-.11zm6.328-7.284c0-2.692 1.98-4.035 5.94-4.035.68 0 1.38.06 2.1.177V6.41c0-.927-.272-1.552-.816-1.88-.306-.186-.88-.278-1.72-.278H9.31c-.19-.01-.29-.078-.29-.198V2.976c0-.132.1-.207.29-.23 1.047-.15 2.087-.224 3.12-.224 1.55 0 2.755.344 3.614 1.032.86.688 1.29 1.71 1.29 3.063v7.184c0 .19-.082.278-.246.278H15.1c-.164 0-.246-.088-.246-.278v-.68c-.76.844-1.758 1.266-2.995 1.266-1.08 0-1.955-.3-2.622-.9-.667-.6-1-1.42-1-2.47zm4.095.744c.558 0 1.027-.15 1.41-.45.38-.3.57-.672.57-1.12V9.6a8.43 8.43 0 0 0-1.74-.18c-.762 0-1.363.154-1.8.463-.44.308-.658.74-.658 1.295 0 .5.138.88.415 1.142.278.26.66.39 1.143.39zm8.37 6.848c.206-.074.336-.032.392.123.054.156-.01.278-.207.363-1.47.59-3.068.885-4.793.885-2.78 0-5.173-.77-7.178-2.31a.257.257 0 0 1-.1-.17c-.005-.075.06-.13.19-.162.12-.034.208-.01.26.07 1.81 1.354 3.986 2.03 6.528 2.03 1.603 0 3.144-.277 4.623-.83z"/></svg>