<svg fill="#0071CE" role="img" viewBox="0 0 24 24" xmlns="http://www.w3.org/2000/svg"><title>Walmart</title><path d="M10.988 8.487a.865.865 0 0 1-.866-.866V1.81a.865.865 0 1 1 1.731 0v5.81a.865.865 0 0 1-.865.866zm4.385 1.622a.864.864 0 0 1-.433-1.616l5.03-2.904a.865.865 0 0 1 .865 1.498l-5.03 2.904a.86.86 0 0 1-.432.118zm1.618 4.383a.864.864 0 0 1 .866-.864h5.81a.865.865 0 1 1 0 1.73h-5.81a.864.864 0 0 1-.866-.866zm-1.618 4.384a.864.864 0 0 1 .432-.117l5.03 2.904a.865.865 0 0 1-.865 1.497l-5.03-2.903a.865.865 0 0 1 .433-1.381zm-4.385 1.621a.865.865 0 0 1 .865.866v5.81a.865.865 0 1 1-1.73 0v-5.81a.865.865 0 0 1 .865-.866zM6.603 17.876a.864.864 0 0 1 .433 1.616l-5.03 2.903a.865.865 0 0 1-.865-1.497l5.03-2.904a.86.86 0 0 1 .432-.118zM4.984 13.49a.864.864 0 0 1-.865.866H-.691a.865.865 0 1 1 0-1.73H4.12a.865.865 0 0 1 .864.864zm1.619-4.381a.864.864 0 0 1-.432.117L1.14 6.323a.865.865 0 0 1 .866-1.498l5.03 2.904a.865.865 0 0 1-.433 1.38z"/></svg>